<svg id="Layer_1" data-name="Layer 1" xmlns="http://www.w3.org/2000/svg" width="320" height="320" viewBox="0 0 320 320">
  <defs>
    <style>
      .cls-1 {
        fill: #e535ab;
      }

      .cls-2 {
        fill: none;
        stroke: #fff;
        stroke-linecap: round;
        stroke-linejoin: round;
        stroke-width: 61px;
        opacity: 0.5;
      }

      .cls-3 {
        fill: #fff;
        fill-rule: evenodd;
      }
    </style>
  </defs>
  <title>Colour - circle</title>
  <g id="Page-1">
    <g id="Sticker">
      <circle id="Oval-2" class="cls-1" cx="160" cy="160" r="160"/>
    </g>
  </g>
  <polyline class="cls-2" points="81 205.898 81 112.164 158.805 163.905 236 112.015 236 205.571"/>
  <path class="cls-3" d="M72.14,131.5458a19.517,19.517,0,0,0,5.1814,2.0594v51.7281a19.4236,19.4236,0,1,0,18.6868,32.254L140.837,243.47a19.4445,19.4445,0,1,0,37.1333-.6188l44.57-25.7333A19.4408,19.4408,0,1,0,246.8043,187.38a19.5149,19.5149,0,0,0-5.1257-2.046V133.6052a19.423,19.423,0,1,0-18.6916-32.2025l-44.8408-25.89a19.4442,19.4442,0,1,0-37.3034-.0371L95.9864,101.3746A19.434,19.434,0,1,0,72.14,131.5458ZM173.89,235.8789a19.4924,19.4924,0,0,0-28.4144-.39l-44.8748-25.9092q0.1054-.3644.1965-0.7327h117.4q0.1547,0.6294.3511,1.2477ZM173.483,83.48L218.43,109.4315a19.3846,19.3846,0,0,0,14,24.1278v51.7939q-0.4048.0992-.805,0.2155L172.9745,83.9861Q173.2334,83.7378,173.483,83.48ZM159.5,89.3917a19.5352,19.5352,0,0,0,5.4853-.7805L223.6214,190.169a19.4814,19.4814,0,0,0-5.4426,9.4462H100.8223a19.3211,19.3211,0,0,0-5.4322-9.4161L154.0394,88.6184A19.5347,19.5347,0,0,0,159.5,89.3917ZM86.57,133.5593a19.3846,19.3846,0,0,0,13.9937-24.1483l44.9385-25.946q0.26,0.2685.5294,0.5269L87.38,185.5763q-0.4026-.1177-0.81-0.2181V133.5593Z"/>
</svg>
