<svg id="Layer_1" data-name="Layer 1" xmlns="http://www.w3.org/2000/svg" width="320" height="320" viewBox="0 0 320 320">
  <defs>
    <style>
      .cls-1 {
        fill: #e535ab;
      }

      .cls-2 {
        fill: none;
        stroke: #fff;
        stroke-linecap: round;
        stroke-linejoin: round;
        stroke-width: 61px;
      }

      .cls-3 {
        fill: #fff;
      }
    </style>
  </defs>
  <title>Single colour - square</title>
  <rect class="cls-1" width="320" height="320"/>
  <polyline class="cls-2" points="81 205.898 81 112.164 158.805 163.905 236 112.015 236 205.571"/>
  <g>
    <path class="cls-3" d="M159.5,270.3518a21.4293,21.4293,0,0,1-20.9717-25.9053l-42.21-24.3711a21.3691,21.3691,0,0,1-14.4062,5.542H81.9111a21.4123,21.4123,0,0,1-6.59-41.7959V135.1223a21.4158,21.4158,0,0,1-12.0517-31.091l0.0065-.0113A21.4975,21.4975,0,0,1,92.58,96.1652,21.7465,21.7465,0,0,1,96.3,98.884L138.5327,74.5a21.4443,21.4443,0,1,1,41.9263.0386L222.6709,98.91a21.4353,21.4353,0,1,1,21.0078,36.2119v48.6992a21.7211,21.7211,0,0,1,4.12,1.8232,21.43,21.43,0,1,1-25.6123,33.9873l-41.8623,24.1709A21.4307,21.4307,0,0,1,159.5,270.3518Zm0-42.8174a21.5217,21.5217,0,0,1,14.7285,5.84l39.0176-22.5273h-106.45l38.3745,22.1563a21.2684,21.2684,0,0,1,14.3294-5.469h0Zm57.167-29.9189a21.5863,21.5863,0,0,1,4.4668-7.7539l-57.125-98.9429a21.715,21.715,0,0,1-8.9912.0054L97.877,189.8928a21.26,21.26,0,0,1,4.4565,7.7227H216.667Zm-128.097-18.1,52.7183-91.3081L102.865,110.3918A21.3857,21.3857,0,0,1,88.57,135.0656v44.45Zm141.86-.0176V135.0656a21.3861,21.3861,0,0,1-14.2988-24.6528L177.7461,88.2512Z" transform="translate(0 0)"/>
    <path class="cls-1" d="M159.5,50.5743a19.4276,19.4276,0,0,1,18.6462,24.9388l44.8408,25.89a19.4372,19.4372,0,1,1,18.6916,32.2025v51.7293a19.416,19.416,0,1,1-19.1386,31.783l-44.57,25.7333a19.444,19.444,0,1,1-37.1333.6188L96.0082,217.5874a19.4364,19.4364,0,1,1-18.6868-32.254V133.6052a19.423,19.423,0,1,1,18.665-32.2306L140.8428,75.476A19.4279,19.4279,0,0,1,159.5,50.5743M87.38,185.5763L146.0315,83.9919q-0.27-.2585-0.5293-0.5269l-44.9385,25.946a19.3846,19.3846,0,0,1-13.31,23.9662q-0.34.0973-.684,0.1821v51.7989q0.4072,0.1.81,0.2181m144.245-.0077q0.4-.1162.805-0.2155V133.5593a19.3846,19.3846,0,0,1-14.1763-23.464q0.0823-.3335.1763-0.6638L173.483,83.48q-0.25.2575-.5085,0.5058l58.65,101.5825M159.5,89.3917a19.5344,19.5344,0,0,1-5.4606-.7733L95.39,190.1991a19.3209,19.3209,0,0,1,5.4322,9.4161H218.1788a19.4817,19.4817,0,0,1,5.4425-9.4462L164.9853,88.6112a19.5356,19.5356,0,0,1-5.4853.7805m-14.0244,146.097a19.4924,19.4924,0,0,1,27.5621-.486q0.44,0.4245.8523,0.876l44.6587-25.7845q-0.1962-.6179-0.3511-1.2477h-117.4q-0.0911.3682-.1965,0.7327l44.8748,25.9093M159.5,46.5743a23.4268,23.4268,0,0,0-23.1858,26.8975L96.5228,96.4461A23.4321,23.4321,0,1,0,70.149,135.0153a23.6531,23.6531,0,0,0,3.1722,1.5192v45.8787a23.425,23.425,0,1,0,20.3,42.0873,23.9787,23.9787,0,0,0,2.916-1.9884L136.31,245.4759a23.4441,23.4441,0,1,0,46.2692-.6673l39.35-22.7186a23.4376,23.4376,0,1,0,27.025-38.0872q-0.0759-.0441-0.1521-0.0877a23.709,23.709,0,0,0-3.123-1.5011v-45.88a23.4247,23.4247,0,1,0-20.254-42.1036,23.8962,23.8962,0,0,0-2.979,2.0406l-39.766-22.96A23.427,23.427,0,0,0,159.5,46.5743h0Zm0,46.8174a23.7093,23.7093,0,0,0,3.4788-.2559l55.7215,96.51a23.575,23.575,0,0,0-3.439,5.97H103.7392a23.6153,23.6153,0,0,0-1.5015-3.1126,23.8743,23.8743,0,0,0-1.9267-2.8266L156.0478,93.14a23.7117,23.7117,0,0,0,3.4522.252h0v0Zm-54.4219,18.0317,30.7458-17.7516L90.57,172.0514v-35.58a23.4018,23.4018,0,0,0,14.5081-25.0478h0v0ZM228.43,172.0351L183.2109,93.7157l30.708,17.73A23.4016,23.4016,0,0,0,228.43,136.4711v35.564h0ZM114.26,212.8468h91.5221L174.473,230.9235a23.5393,23.5393,0,0,0-14.973-5.389,23.2547,23.2547,0,0,0-14.5455,5.0345L114.26,212.8468h0Z" transform="translate(0 0)"/>
  </g>
</svg>
