<svg id="Layer_1" data-name="Layer 1" xmlns="http://www.w3.org/2000/svg" width="320" height="320" viewBox="0 0 320 320">
  <defs>
    <style>
      .cls-1 {
        fill: #e535ab;
      }

      .cls-2 {
        fill: none;
        stroke: #fff;
        stroke-linecap: round;
        stroke-linejoin: round;
        stroke-width: 61px;
      }

      .cls-3 {
        fill: #fff;
        fill-rule: evenodd;
      }
    </style>
  </defs>
  <title>Single colour - circle</title>
  <g id="Page-1">
    <g id="Sticker">
      <circle id="Oval-2" class="cls-1" cx="160" cy="160" r="160"/>
    </g>
  </g>
  <polyline class="cls-2" points="81 205.898 81 112.164 158.805 163.905 236 112.015 236 205.571"/>
  <g>
    <path class="cls-3" d="M159.5,270.3518a21.4293,21.4293,0,0,1-20.9717-25.9053L96.3188,220.0754a21.3691,21.3691,0,0,1-14.4062,5.542H81.9111a21.4123,21.4123,0,0,1-6.59-41.7959V135.1223A21.5845,21.5845,0,0,1,71.145,133.28a21.4186,21.4186,0,0,1-7.8691-29.26A21.4975,21.4975,0,0,1,92.58,96.1652,21.7466,21.7466,0,0,1,96.3,98.884L138.5327,74.5a21.4443,21.4443,0,1,1,41.9263.0386L222.6709,98.91a21.4353,21.4353,0,1,1,21.0078,36.2119v48.6992a21.7211,21.7211,0,0,1,4.12,1.8232,21.43,21.43,0,1,1-25.6123,33.9873l-41.8623,24.1709A21.4307,21.4307,0,0,1,159.5,270.3518Zm0-42.8174a21.5217,21.5217,0,0,1,14.7285,5.84l39.0176-22.5273h-106.45l38.3745,22.1563A21.2684,21.2684,0,0,1,159.5,227.5344Zm57.167-29.9189a21.5864,21.5864,0,0,1,4.4668-7.7539l-57.125-98.9429a21.7149,21.7149,0,0,1-8.9912.0054L97.877,189.8928a21.26,21.26,0,0,1,4.4565,7.7227H216.667ZM88.57,179.5158l52.7183-91.3081-38.4233,22.1841A21.3857,21.3857,0,0,1,88.57,135.0656v44.45Zm141.86-.0176V135.0656a21.3861,21.3861,0,0,1-14.2988-24.6528L177.7461,88.2512Z"/>
    <path class="cls-1" d="M159.5,50.5743a19.4276,19.4276,0,0,1,18.6462,24.9388l44.8408,25.89a19.4372,19.4372,0,1,1,18.6916,32.2025v51.7293A19.421,19.421,0,1,1,227.36,221.0258a19.3076,19.3076,0,0,1-4.82-3.9079l-44.57,25.7333a19.444,19.444,0,1,1-37.1333.6188L96.0082,217.5874a19.4364,19.4364,0,1,1-18.6868-32.254V133.6052a19.423,19.423,0,1,1,18.665-32.2306L140.8428,75.476A19.4279,19.4279,0,0,1,159.5,50.5743M87.38,185.5763L146.0315,83.9919q-0.27-.2585-0.5293-0.5269l-44.9385,25.946A19.3846,19.3846,0,0,1,86.57,133.5593v51.7989q0.4072,0.1.81,0.2181m144.245-.0077q0.4-.1162.805-0.2155V133.5593A19.3846,19.3846,0,0,1,218.43,109.4315L173.483,83.48q-0.25.2575-.5085,0.5058l58.65,101.5825M159.5,89.3917a19.5342,19.5342,0,0,1-5.4606-.7733L95.39,190.1991a19.3209,19.3209,0,0,1,5.4322,9.4161H218.1788a19.4817,19.4817,0,0,1,5.4425-9.4462L164.9853,88.6112a19.5354,19.5354,0,0,1-5.4853.7805m-14.0244,146.097a19.4924,19.4924,0,0,1,28.4144.39l44.6587-25.7845q-0.1962-.6179-0.3511-1.2477h-117.4q-0.0911.3682-.1965,0.7327l44.8748,25.9093M159.5,46.5743a23.4268,23.4268,0,0,0-23.1858,26.8975L96.5228,96.4461A23.3474,23.3474,0,0,0,81.88,91.3088a23.4079,23.4079,0,0,0-22.6543,29.5274,23.209,23.209,0,0,0,10.9233,14.1791,23.6542,23.6542,0,0,0,3.1722,1.5192v45.8787a23.425,23.425,0,1,0,20.3,42.0873,23.9782,23.9782,0,0,0,2.916-1.9884l39.7732,22.9638a23.4441,23.4441,0,1,0,46.2692-.6673L221.9291,222.09a23.5016,23.5016,0,0,0,35.4729-6.186,23.3351,23.3351,0,0,0-8.6-31.9889,23.7109,23.7109,0,0,0-3.123-1.5011V136.5345A23.4247,23.4247,0,1,0,225.425,94.4309a23.8967,23.8967,0,0,0-2.979,2.0406L182.68,73.5118A23.427,23.427,0,0,0,159.5,46.5743h0Zm0,46.8174a23.7092,23.7092,0,0,0,3.4788-.2559l55.7215,96.51a23.575,23.575,0,0,0-3.439,5.97H103.7392a23.6166,23.6166,0,0,0-1.5015-3.1126,23.8752,23.8752,0,0,0-1.9267-2.8266L156.0478,93.14a23.7123,23.7123,0,0,0,3.4522.252h0Zm-54.4219,18.0317,30.7458-17.7516L90.57,172.0514v-35.58a23.4018,23.4018,0,0,0,14.5081-25.0478h0ZM228.43,172.0351L183.2109,93.7157l30.708,17.73A23.4016,23.4016,0,0,0,228.43,136.4711v35.564h0ZM114.26,212.8468h91.5221L174.473,230.9235a23.5393,23.5393,0,0,0-14.973-5.389,23.2547,23.2547,0,0,0-14.5455,5.0345L114.26,212.8468h0Z"/>
  </g>
</svg>
